<?xml version="1.0" encoding="UTF-8"?><svg xmlns="http://www.w3.org/2000/svg" xmlns:xlink="http://www.w3.org/1999/xlink" contentScriptType="text/ecmascript" width="262.5pt" zoomAndPan="magnify" contentStyleType="text/css" viewBox="0 0 262.5 74.999997" height="74.999997pt" preserveAspectRatio="xMidYMid meet" version="1.2"><defs><g/></defs><g xml:id="surface1" id="surface1"><g style="fill:rgb(72.549438%,19.60907%,16.079712%);fill-opacity:0.4;"><g transform="translate(21.469655, 52.628105)"><path style="stroke:none;" d="M 19.25 -3.171875 L 1.28125 -11.140625 L 1.28125 -14.203125 L 19.25 -23.203125 L 19.25 -17.921875 L 8.234375 -12.890625 L 19.25 -8.40625 Z M 19.25 -3.171875 "/></g></g><g style="fill:rgb(72.549438%,19.60907%,16.079712%);fill-opacity:0.4;"><g transform="translate(42.065101, 52.628105)"><path style="stroke:none;" d="M 21.328125 0 L 1.078125 0 L 1.078125 -4.34375 L 12.34375 -20.3125 L 1.34375 -20.3125 L 1.34375 -25.984375 L 21.046875 -25.984375 L 21.046875 -21.671875 L 9.796875 -5.671875 L 21.328125 -5.671875 Z M 21.328125 0 "/></g></g><g style="fill:rgb(72.549438%,19.60907%,16.079712%);fill-opacity:0.4;"><g transform="translate(64.295387, 52.628105)"><path style="stroke:none;" d="M 31.203125 -13.4375 C 31.203125 -11.769531 30.910156 -10.210938 30.328125 -8.765625 C 29.753906 -7.316406 28.957031 -6.179688 27.9375 -5.359375 C 26.925781 -4.546875 25.765625 -4.140625 24.453125 -4.140625 C 23.523438 -4.140625 22.679688 -4.328125 21.921875 -4.703125 C 21.160156 -5.078125 20.566406 -5.59375 20.140625 -6.25 L 19.875 -6.25 C 18.601562 -4.84375 17.0625 -4.140625 15.25 -4.140625 C 13.082031 -4.140625 11.414062 -4.773438 10.25 -6.046875 C 9.09375 -7.316406 8.515625 -9.085938 8.515625 -11.359375 C 8.515625 -13.023438 8.878906 -14.5 9.609375 -15.78125 C 10.347656 -17.070312 11.410156 -18.0625 12.796875 -18.75 C 14.179688 -19.445312 15.785156 -19.796875 17.609375 -19.796875 C 18.578125 -19.796875 19.632812 -19.695312 20.78125 -19.5 C 21.9375 -19.3125 23 -19.050781 23.96875 -18.71875 L 23.59375 -11.21875 L 23.546875 -9.546875 C 23.546875 -8.523438 23.835938 -8.015625 24.421875 -8.015625 C 25.035156 -8.015625 25.535156 -8.53125 25.921875 -9.5625 C 26.304688 -10.59375 26.5 -11.894531 26.5 -13.46875 C 26.5 -16.300781 25.695312 -18.488281 24.09375 -20.03125 C 22.5 -21.570312 20.234375 -22.34375 17.296875 -22.34375 C 15.046875 -22.34375 13.085938 -21.875 11.421875 -20.9375 C 9.753906 -20 8.484375 -18.65625 7.609375 -16.90625 C 6.734375 -15.164062 6.296875 -13.117188 6.296875 -10.765625 C 6.296875 -7.742188 7.140625 -5.410156 8.828125 -3.765625 C 10.515625 -2.128906 12.898438 -1.3125 15.984375 -1.3125 C 17.359375 -1.3125 18.84375 -1.457031 20.4375 -1.75 C 22.03125 -2.050781 23.59375 -2.472656 25.125 -3.015625 L 25.125 1.046875 C 22.46875 2.171875 19.503906 2.734375 16.234375 2.734375 C 11.628906 2.734375 8.015625 1.535156 5.390625 -0.859375 C 2.765625 -3.265625 1.453125 -6.59375 1.453125 -10.84375 C 1.453125 -13.84375 2.128906 -16.53125 3.484375 -18.90625 C 4.847656 -21.28125 6.722656 -23.109375 9.109375 -24.390625 C 11.492188 -25.679688 14.195312 -26.328125 17.21875 -26.328125 C 20 -26.328125 22.453125 -25.796875 24.578125 -24.734375 C 26.703125 -23.679688 28.335938 -22.179688 29.484375 -20.234375 C 30.628906 -18.285156 31.203125 -16.019531 31.203125 -13.4375 Z M 13.515625 -11.390625 C 13.515625 -10.203125 13.726562 -9.34375 14.15625 -8.8125 C 14.59375 -8.28125 15.164062 -8.015625 15.875 -8.015625 C 16.789062 -8.015625 17.457031 -8.378906 17.875 -9.109375 C 18.300781 -9.847656 18.582031 -11.15625 18.71875 -13.03125 L 18.890625 -15.796875 C 18.421875 -15.867188 18.019531 -15.90625 17.6875 -15.90625 C 16.40625 -15.90625 15.390625 -15.507812 14.640625 -14.71875 C 13.890625 -13.925781 13.515625 -12.816406 13.515625 -11.390625 Z M 13.515625 -11.390625 "/></g></g><g style="fill:rgb(72.549438%,19.60907%,16.079712%);fill-opacity:0.4;"><g transform="translate(96.938898, 52.628105)"><path style="stroke:none;" d="M 17.546875 0 L 0.875 0 L 0.875 -3.96875 L 9.203125 -14.828125 L 1.34375 -14.828125 L 1.34375 -20.140625 L 17.15625 -20.140625 L 17.15625 -15.84375 L 9.171875 -5.3125 L 17.546875 -5.3125 Z M 17.546875 0 "/></g></g><g style="fill:rgb(72.549438%,19.60907%,16.079712%);fill-opacity:0.4;"><g transform="translate(115.384164, 52.628105)"><path style="stroke:none;" d="M 15.53125 0 L 14.203125 -2.671875 L 14.0625 -2.671875 C 13.125 -1.503906 12.164062 -0.707031 11.1875 -0.28125 C 10.21875 0.144531 8.96875 0.359375 7.4375 0.359375 C 5.539062 0.359375 4.046875 -0.207031 2.953125 -1.34375 C 1.859375 -2.488281 1.3125 -4.09375 1.3125 -6.15625 C 1.3125 -8.300781 2.054688 -9.894531 3.546875 -10.9375 C 5.046875 -11.988281 7.210938 -12.578125 10.046875 -12.703125 L 13.40625 -12.8125 L 13.40625 -13.09375 C 13.40625 -14.757812 12.585938 -15.59375 10.953125 -15.59375 C 9.484375 -15.59375 7.613281 -15.09375 5.34375 -14.09375 L 3.34375 -18.6875 C 5.6875 -19.894531 8.648438 -20.5 12.234375 -20.5 C 14.816406 -20.5 16.816406 -19.859375 18.234375 -18.578125 C 19.648438 -17.296875 20.359375 -15.503906 20.359375 -13.203125 L 20.359375 0 Z M 10.375 -4.546875 C 11.21875 -4.546875 11.9375 -4.8125 12.53125 -5.34375 C 13.132812 -5.882812 13.4375 -6.582031 13.4375 -7.4375 L 13.4375 -9 L 11.84375 -8.921875 C 9.550781 -8.835938 8.40625 -8 8.40625 -6.40625 C 8.40625 -5.164062 9.0625 -4.546875 10.375 -4.546875 Z M 10.375 -4.546875 "/></g></g><g style="fill:rgb(72.549438%,19.60907%,16.079712%);fill-opacity:0.4;"><g transform="translate(138.058693, 52.628105)"><path style="stroke:none;" d="M 11.578125 0.359375 C 8.273438 0.359375 5.773438 -0.53125 4.078125 -2.3125 C 2.378906 -4.09375 1.53125 -6.644531 1.53125 -9.96875 C 1.53125 -13.3125 2.445312 -15.898438 4.28125 -17.734375 C 6.125 -19.578125 8.738281 -20.5 12.125 -20.5 C 14.457031 -20.5 16.65625 -19.988281 18.71875 -18.96875 L 16.671875 -13.828125 C 15.828125 -14.191406 15.050781 -14.484375 14.34375 -14.703125 C 13.632812 -14.921875 12.894531 -15.03125 12.125 -15.03125 C 11 -15.03125 10.128906 -14.59375 9.515625 -13.71875 C 8.898438 -12.84375 8.59375 -11.609375 8.59375 -10.015625 C 8.59375 -6.785156 9.78125 -5.171875 12.15625 -5.171875 C 14.195312 -5.171875 16.15625 -5.765625 18.03125 -6.953125 L 18.03125 -1.421875 C 16.238281 -0.234375 14.085938 0.359375 11.578125 0.359375 Z M 11.578125 0.359375 "/></g></g><g style="fill:rgb(72.549438%,19.60907%,16.079712%);fill-opacity:0.4;"><g transform="translate(157.676781, 52.628105)"><path style="stroke:none;" d="M 9.390625 0 L 2.4375 0 L 2.4375 -20.140625 L 9.390625 -20.140625 Z M 2.25 -25.15625 C 2.25 -26.195312 2.539062 -26.972656 3.125 -27.484375 C 3.707031 -27.992188 4.644531 -28.25 5.9375 -28.25 C 7.226562 -28.25 8.171875 -27.988281 8.765625 -27.46875 C 9.359375 -26.945312 9.65625 -26.175781 9.65625 -25.15625 C 9.65625 -23.113281 8.414062 -22.09375 5.9375 -22.09375 C 3.476562 -22.09375 2.25 -23.113281 2.25 -25.15625 Z M 2.25 -25.15625 "/></g></g><g style="fill:rgb(72.549438%,19.60907%,16.079712%);fill-opacity:0.4;"><g transform="translate(169.511605, 52.628105)"><path style="stroke:none;" d="M 12.265625 -5.140625 C 13.203125 -5.140625 14.320312 -5.367188 15.625 -5.828125 L 15.625 -0.765625 C 14.6875 -0.359375 13.789062 -0.0703125 12.9375 0.09375 C 12.09375 0.269531 11.101562 0.359375 9.96875 0.359375 C 7.632812 0.359375 5.953125 -0.210938 4.921875 -1.359375 C 3.890625 -2.503906 3.375 -4.257812 3.375 -6.625 L 3.375 -14.9375 L 0.9375 -14.9375 L 0.9375 -17.765625 L 4.03125 -19.9375 L 5.828125 -24.171875 L 10.375 -24.171875 L 10.375 -20.140625 L 15.328125 -20.140625 L 15.328125 -14.9375 L 10.375 -14.9375 L 10.375 -7.09375 C 10.375 -5.789062 11.003906 -5.140625 12.265625 -5.140625 Z M 12.265625 -5.140625 "/></g></g><g style="fill:rgb(72.549438%,19.60907%,16.079712%);fill-opacity:0.4;"><g transform="translate(186.250952, 52.628105)"><path style="stroke:none;" d="M 20.046875 -12.953125 C 20.046875 -8.359375 19.273438 -4.988281 17.734375 -2.84375 C 16.203125 -0.707031 13.847656 0.359375 10.671875 0.359375 C 7.566406 0.359375 5.222656 -0.753906 3.640625 -2.984375 C 2.066406 -5.222656 1.28125 -8.546875 1.28125 -12.953125 C 1.28125 -17.578125 2.050781 -20.96875 3.59375 -23.125 C 5.132812 -25.28125 7.492188 -26.359375 10.671875 -26.359375 C 13.765625 -26.359375 16.097656 -25.234375 17.671875 -22.984375 C 19.253906 -20.742188 20.046875 -17.398438 20.046875 -12.953125 Z M 8.265625 -12.953125 C 8.265625 -10.015625 8.445312 -7.992188 8.8125 -6.890625 C 9.1875 -5.796875 9.804688 -5.25 10.671875 -5.25 C 11.546875 -5.25 12.160156 -5.816406 12.515625 -6.953125 C 12.878906 -8.085938 13.0625 -10.085938 13.0625 -12.953125 C 13.0625 -15.835938 12.878906 -17.859375 12.515625 -19.015625 C 12.148438 -20.171875 11.535156 -20.75 10.671875 -20.75 C 9.804688 -20.75 9.1875 -20.191406 8.8125 -19.078125 C 8.445312 -17.960938 8.265625 -15.921875 8.265625 -12.953125 Z M 8.265625 -12.953125 "/></g></g><g style="fill:rgb(72.549438%,19.60907%,16.079712%);fill-opacity:0.4;"><g transform="translate(207.57496, 52.628105)"><path style="stroke:none;" d="M 16.015625 -26.359375 L 6.328125 0.359375 L 0.171875 0.359375 L 9.859375 -26.359375 Z M 16.015625 -26.359375 "/></g></g><g style="fill:rgb(72.549438%,19.60907%,16.079712%);fill-opacity:0.4;"><g transform="translate(223.656824, 52.628105)"><path style="stroke:none;" d="M 1.28125 -8.40625 L 12.296875 -12.890625 L 1.28125 -17.921875 L 1.28125 -23.203125 L 19.25 -14.203125 L 19.25 -11.140625 L 1.28125 -3.171875 Z M 1.28125 -8.40625 "/></g></g><g style="fill:rgb(72.549438%,19.60907%,16.079712%);fill-opacity:1;"><g transform="translate(19.860586, 51.019035)"><path style="stroke:none;" d="M 19.25 -3.171875 L 1.28125 -11.140625 L 1.28125 -14.203125 L 19.25 -23.203125 L 19.25 -17.921875 L 8.234375 -12.890625 L 19.25 -8.40625 Z M 19.25 -3.171875 "/></g></g><g style="fill:rgb(72.549438%,19.60907%,16.079712%);fill-opacity:1;"><g transform="translate(40.456032, 51.019035)"><path style="stroke:none;" d="M 21.328125 0 L 1.078125 0 L 1.078125 -4.34375 L 12.34375 -20.3125 L 1.34375 -20.3125 L 1.34375 -25.984375 L 21.046875 -25.984375 L 21.046875 -21.671875 L 9.796875 -5.671875 L 21.328125 -5.671875 Z M 21.328125 0 "/></g></g><g style="fill:rgb(72.549438%,19.60907%,16.079712%);fill-opacity:1;"><g transform="translate(62.686318, 51.019035)"><path style="stroke:none;" d="M 31.203125 -13.4375 C 31.203125 -11.769531 30.910156 -10.210938 30.328125 -8.765625 C 29.753906 -7.316406 28.957031 -6.179688 27.9375 -5.359375 C 26.925781 -4.546875 25.765625 -4.140625 24.453125 -4.140625 C 23.523438 -4.140625 22.679688 -4.328125 21.921875 -4.703125 C 21.160156 -5.078125 20.566406 -5.59375 20.140625 -6.25 L 19.875 -6.25 C 18.601562 -4.84375 17.0625 -4.140625 15.25 -4.140625 C 13.082031 -4.140625 11.414062 -4.773438 10.25 -6.046875 C 9.09375 -7.316406 8.515625 -9.085938 8.515625 -11.359375 C 8.515625 -13.023438 8.878906 -14.5 9.609375 -15.78125 C 10.347656 -17.070312 11.410156 -18.0625 12.796875 -18.75 C 14.179688 -19.445312 15.785156 -19.796875 17.609375 -19.796875 C 18.578125 -19.796875 19.632812 -19.695312 20.78125 -19.5 C 21.9375 -19.3125 23 -19.050781 23.96875 -18.71875 L 23.59375 -11.21875 L 23.546875 -9.546875 C 23.546875 -8.523438 23.835938 -8.015625 24.421875 -8.015625 C 25.035156 -8.015625 25.535156 -8.53125 25.921875 -9.5625 C 26.304688 -10.59375 26.5 -11.894531 26.5 -13.46875 C 26.5 -16.300781 25.695312 -18.488281 24.09375 -20.03125 C 22.5 -21.570312 20.234375 -22.34375 17.296875 -22.34375 C 15.046875 -22.34375 13.085938 -21.875 11.421875 -20.9375 C 9.753906 -20 8.484375 -18.65625 7.609375 -16.90625 C 6.734375 -15.164062 6.296875 -13.117188 6.296875 -10.765625 C 6.296875 -7.742188 7.140625 -5.410156 8.828125 -3.765625 C 10.515625 -2.128906 12.898438 -1.3125 15.984375 -1.3125 C 17.359375 -1.3125 18.84375 -1.457031 20.4375 -1.75 C 22.03125 -2.050781 23.59375 -2.472656 25.125 -3.015625 L 25.125 1.046875 C 22.46875 2.171875 19.503906 2.734375 16.234375 2.734375 C 11.628906 2.734375 8.015625 1.535156 5.390625 -0.859375 C 2.765625 -3.265625 1.453125 -6.59375 1.453125 -10.84375 C 1.453125 -13.84375 2.128906 -16.53125 3.484375 -18.90625 C 4.847656 -21.28125 6.722656 -23.109375 9.109375 -24.390625 C 11.492188 -25.679688 14.195312 -26.328125 17.21875 -26.328125 C 20 -26.328125 22.453125 -25.796875 24.578125 -24.734375 C 26.703125 -23.679688 28.335938 -22.179688 29.484375 -20.234375 C 30.628906 -18.285156 31.203125 -16.019531 31.203125 -13.4375 Z M 13.515625 -11.390625 C 13.515625 -10.203125 13.726562 -9.34375 14.15625 -8.8125 C 14.59375 -8.28125 15.164062 -8.015625 15.875 -8.015625 C 16.789062 -8.015625 17.457031 -8.378906 17.875 -9.109375 C 18.300781 -9.847656 18.582031 -11.15625 18.71875 -13.03125 L 18.890625 -15.796875 C 18.421875 -15.867188 18.019531 -15.90625 17.6875 -15.90625 C 16.40625 -15.90625 15.390625 -15.507812 14.640625 -14.71875 C 13.890625 -13.925781 13.515625 -12.816406 13.515625 -11.390625 Z M 13.515625 -11.390625 "/></g></g><g style="fill:rgb(72.549438%,19.60907%,16.079712%);fill-opacity:1;"><g transform="translate(95.329829, 51.019035)"><path style="stroke:none;" d="M 17.546875 0 L 0.875 0 L 0.875 -3.96875 L 9.203125 -14.828125 L 1.34375 -14.828125 L 1.34375 -20.140625 L 17.15625 -20.140625 L 17.15625 -15.84375 L 9.171875 -5.3125 L 17.546875 -5.3125 Z M 17.546875 0 "/></g></g><g style="fill:rgb(72.549438%,19.60907%,16.079712%);fill-opacity:1;"><g transform="translate(113.775095, 51.019035)"><path style="stroke:none;" d="M 15.53125 0 L 14.203125 -2.671875 L 14.0625 -2.671875 C 13.125 -1.503906 12.164062 -0.707031 11.1875 -0.28125 C 10.21875 0.144531 8.96875 0.359375 7.4375 0.359375 C 5.539062 0.359375 4.046875 -0.207031 2.953125 -1.34375 C 1.859375 -2.488281 1.3125 -4.09375 1.3125 -6.15625 C 1.3125 -8.300781 2.054688 -9.894531 3.546875 -10.9375 C 5.046875 -11.988281 7.210938 -12.578125 10.046875 -12.703125 L 13.40625 -12.8125 L 13.40625 -13.09375 C 13.40625 -14.757812 12.585938 -15.59375 10.953125 -15.59375 C 9.484375 -15.59375 7.613281 -15.09375 5.34375 -14.09375 L 3.34375 -18.6875 C 5.6875 -19.894531 8.648438 -20.5 12.234375 -20.5 C 14.816406 -20.5 16.816406 -19.859375 18.234375 -18.578125 C 19.648438 -17.296875 20.359375 -15.503906 20.359375 -13.203125 L 20.359375 0 Z M 10.375 -4.546875 C 11.21875 -4.546875 11.9375 -4.8125 12.53125 -5.34375 C 13.132812 -5.882812 13.4375 -6.582031 13.4375 -7.4375 L 13.4375 -9 L 11.84375 -8.921875 C 9.550781 -8.835938 8.40625 -8 8.40625 -6.40625 C 8.40625 -5.164062 9.0625 -4.546875 10.375 -4.546875 Z M 10.375 -4.546875 "/></g></g><g style="fill:rgb(72.549438%,19.60907%,16.079712%);fill-opacity:1;"><g transform="translate(136.449624, 51.019035)"><path style="stroke:none;" d="M 11.578125 0.359375 C 8.273438 0.359375 5.773438 -0.53125 4.078125 -2.3125 C 2.378906 -4.09375 1.53125 -6.644531 1.53125 -9.96875 C 1.53125 -13.3125 2.445312 -15.898438 4.28125 -17.734375 C 6.125 -19.578125 8.738281 -20.5 12.125 -20.5 C 14.457031 -20.5 16.65625 -19.988281 18.71875 -18.96875 L 16.671875 -13.828125 C 15.828125 -14.191406 15.050781 -14.484375 14.34375 -14.703125 C 13.632812 -14.921875 12.894531 -15.03125 12.125 -15.03125 C 11 -15.03125 10.128906 -14.59375 9.515625 -13.71875 C 8.898438 -12.84375 8.59375 -11.609375 8.59375 -10.015625 C 8.59375 -6.785156 9.78125 -5.171875 12.15625 -5.171875 C 14.195312 -5.171875 16.15625 -5.765625 18.03125 -6.953125 L 18.03125 -1.421875 C 16.238281 -0.234375 14.085938 0.359375 11.578125 0.359375 Z M 11.578125 0.359375 "/></g></g><g style="fill:rgb(72.549438%,19.60907%,16.079712%);fill-opacity:1;"><g transform="translate(156.067712, 51.019035)"><path style="stroke:none;" d="M 9.390625 0 L 2.4375 0 L 2.4375 -20.140625 L 9.390625 -20.140625 Z M 2.25 -25.15625 C 2.25 -26.195312 2.539062 -26.972656 3.125 -27.484375 C 3.707031 -27.992188 4.644531 -28.25 5.9375 -28.25 C 7.226562 -28.25 8.171875 -27.988281 8.765625 -27.46875 C 9.359375 -26.945312 9.65625 -26.175781 9.65625 -25.15625 C 9.65625 -23.113281 8.414062 -22.09375 5.9375 -22.09375 C 3.476562 -22.09375 2.25 -23.113281 2.25 -25.15625 Z M 2.25 -25.15625 "/></g></g><g style="fill:rgb(72.549438%,19.60907%,16.079712%);fill-opacity:1;"><g transform="translate(167.902536, 51.019035)"><path style="stroke:none;" d="M 12.265625 -5.140625 C 13.203125 -5.140625 14.320312 -5.367188 15.625 -5.828125 L 15.625 -0.765625 C 14.6875 -0.359375 13.789062 -0.0703125 12.9375 0.09375 C 12.09375 0.269531 11.101562 0.359375 9.96875 0.359375 C 7.632812 0.359375 5.953125 -0.210938 4.921875 -1.359375 C 3.890625 -2.503906 3.375 -4.257812 3.375 -6.625 L 3.375 -14.9375 L 0.9375 -14.9375 L 0.9375 -17.765625 L 4.03125 -19.9375 L 5.828125 -24.171875 L 10.375 -24.171875 L 10.375 -20.140625 L 15.328125 -20.140625 L 15.328125 -14.9375 L 10.375 -14.9375 L 10.375 -7.09375 C 10.375 -5.789062 11.003906 -5.140625 12.265625 -5.140625 Z M 12.265625 -5.140625 "/></g></g><g style="fill:rgb(72.549438%,19.60907%,16.079712%);fill-opacity:1;"><g transform="translate(184.641883, 51.019035)"><path style="stroke:none;" d="M 20.046875 -12.953125 C 20.046875 -8.359375 19.273438 -4.988281 17.734375 -2.84375 C 16.203125 -0.707031 13.847656 0.359375 10.671875 0.359375 C 7.566406 0.359375 5.222656 -0.753906 3.640625 -2.984375 C 2.066406 -5.222656 1.28125 -8.546875 1.28125 -12.953125 C 1.28125 -17.578125 2.050781 -20.96875 3.59375 -23.125 C 5.132812 -25.28125 7.492188 -26.359375 10.671875 -26.359375 C 13.765625 -26.359375 16.097656 -25.234375 17.671875 -22.984375 C 19.253906 -20.742188 20.046875 -17.398438 20.046875 -12.953125 Z M 8.265625 -12.953125 C 8.265625 -10.015625 8.445312 -7.992188 8.8125 -6.890625 C 9.1875 -5.796875 9.804688 -5.25 10.671875 -5.25 C 11.546875 -5.25 12.160156 -5.816406 12.515625 -6.953125 C 12.878906 -8.085938 13.0625 -10.085938 13.0625 -12.953125 C 13.0625 -15.835938 12.878906 -17.859375 12.515625 -19.015625 C 12.148438 -20.171875 11.535156 -20.75 10.671875 -20.75 C 9.804688 -20.75 9.1875 -20.191406 8.8125 -19.078125 C 8.445312 -17.960938 8.265625 -15.921875 8.265625 -12.953125 Z M 8.265625 -12.953125 "/></g></g><g style="fill:rgb(72.549438%,19.60907%,16.079712%);fill-opacity:1;"><g transform="translate(205.965891, 51.019035)"><path style="stroke:none;" d="M 16.015625 -26.359375 L 6.328125 0.359375 L 0.171875 0.359375 L 9.859375 -26.359375 Z M 16.015625 -26.359375 "/></g></g><g style="fill:rgb(72.549438%,19.60907%,16.079712%);fill-opacity:1;"><g transform="translate(222.047755, 51.019035)"><path style="stroke:none;" d="M 1.28125 -8.40625 L 12.296875 -12.890625 L 1.28125 -17.921875 L 1.28125 -23.203125 L 19.25 -14.203125 L 19.25 -11.140625 L 1.28125 -3.171875 Z M 1.28125 -8.40625 "/></g></g><path style="fill:none;stroke-width:1;stroke-linecap:round;stroke-linejoin:miter;stroke:rgb(72.549438%,19.60907%,16.079712%);stroke-opacity:1;stroke-miterlimit:4;" d="M 0.500375 0.00000526752 L 37.626883 0.00000526752 " transform="matrix(4.5035,0,0,4.494658,45.566875,56.96482)"/></g></svg>